<svg width="933" height="219" viewBox="0 0 933 219" fill="none" xmlns="http://www.w3.org/2000/svg">
<path d="M900.44 49.61L932.09 60.27L906.42 40.69L931.44 21.61L900.27 32.09L894.86 0L889.72 31.87L858.95 21.75L884.23 40.75L858.56 60.6L889.58 49.93L894.86 82.65L900.44 49.61Z" fill="#231F20"/>
<path d="M707.11 72.27H706.09V70.19H756.15V60.46H758.21V72.27H707.11Z" fill="#231F20"/>
<path d="M0.0100021 67.0203H14.91L19.54 56.7604H47.47L52.11 67.0203H67.39L41.07 12.5503H26.32L0 67.0203H0.0100021ZM43.07 47.1303H23.93L32.19 28.9903C32.5 28.2903 32.73 27.5903 33.03 26.9103C33.19 26.2903 33.34 25.6703 33.57 24.9803C33.65 25.7503 33.8 26.4404 34.04 27.1404C34.25 27.8404 34.57 28.6104 34.96 29.2904L43.06 47.1303H43.07ZM93.47 67.0203H121.57C129.83 66.9503 140.1 66.8703 147.74 56.9203C151.51 51.9303 153.07 45.7503 153.07 39.5003C153.07 25.4503 145.19 14.3403 129.29 12.8703C127.28 12.6403 125.27 12.6403 123.26 12.5603H93.46V67.0303L93.47 67.0203ZM122.81 22.2104C127.51 22.2903 133.23 22.3503 136.78 27.9903C138.32 30.4603 139.47 34.0104 139.47 39.1804C139.47 46.0404 137.78 49.8303 136.16 52.0704C132.54 57.2104 126.98 57.2904 122.11 57.3704H107.06V22.2003H122.8L122.81 22.2104ZM199.85 67.0203H213.12L237.59 12.5503H222.93L208.27 48.3003C207.34 50.3803 207.18 50.9903 206.49 53.4703C205.95 51.2303 205.72 50.5303 204.87 48.3003L190.29 12.5503H175.24L199.86 67.0203H199.85ZM263.92 67.0203H316.24V57.3003H277.58V44.2803H313.47V34.6303H277.58V22.3503H314.7V12.5503H263.92V67.0203ZM348.36 67.0203H361.33V37.0203C361.24 32.8603 361.24 31.9303 360.87 27.7603C363.87 31.6103 365.04 33.0104 367.9 36.3204L394.91 67.0104H408.42V12.5404H395.38V40.4103C395.45 45.1103 395.45 46.5003 395.92 51.6703C392.52 47.4303 391.9 46.6604 388.66 42.8704L361.96 12.5404H348.38V67.0104L348.36 67.0203ZM435.81 22.5203H456.02V67.0203H469.69V22.5203H489.9V12.5503H435.81V22.5203ZM517 44.2004C517 50.6904 517.07 57.8304 525.64 63.6204C529.04 65.8704 532.43 66.9404 535.06 67.5604C538.84 68.4804 542.69 68.8704 546.56 68.8704C554.82 68.8704 565.31 66.7903 570.94 60.5303C575.58 55.4503 575.58 49.9903 575.65 44.1903V12.5404H562.06V44.6603C562.22 50.1503 561.06 51.9203 559.74 53.4604C557.58 55.9003 554.26 57.2903 549.09 57.7503C545.06 57.9103 541.14 58.0604 536.73 55.9804C531.56 53.5304 530.56 49.4404 530.56 44.5904V12.5503H516.98V44.2004H517ZM611.32 67.0203H624.99V45.1303H640.5L655.09 67.0203H671.14L654.63 44.2803C656.78 43.8903 660.56 43.1103 663.49 40.8803C667.37 37.9503 668.76 33.0103 668.76 28.8403C668.76 25.6703 667.98 21.5903 665.19 18.3403C660.66 13.1003 655.02 12.5503 648.84 12.5503H611.33V67.0203H611.32ZM624.99 22.1203H646.14C651.55 22.1203 652.84 23.4504 653.85 24.7504C654.78 26.0704 654.94 27.9204 654.94 29.0004C654.94 35.1004 649.69 35.4804 646.75 35.4804H624.99V22.1303V22.1203ZM778.97 53.3903C785.99 67.1903 799.81 68.7304 808.76 68.7304C815.62 68.7304 836.46 68.1103 836.46 50.6103C836.46 38.6503 825.74 36.3304 819.41 35.1804C816.86 34.6304 805.75 32.7803 803.51 32.3204C799.42 31.3703 796.26 30.4603 796.26 26.9103C796.26 21.7403 802.43 20.5803 808.45 20.5803C811.08 20.5803 815.79 20.8903 819.41 22.6703C822.66 24.2803 823.73 26.2903 824.19 27.1404L837.16 23.9004C836.07 22.1204 833.68 18.1103 828.13 15.1003C822.49 12.0103 816.4 10.8604 808.44 10.8604C799.8 10.8604 789.78 12.7903 785.21 20.1203C783.82 22.3503 783.05 25.1403 783.05 27.8403C783.05 40.1903 795.71 42.5803 800.72 43.5003C803.27 43.9703 814.47 45.6703 816.7 46.1303C819.63 46.6703 823.42 47.6003 823.42 51.5303C823.42 58.1403 813 58.6804 809.68 58.6804C802.27 58.6804 794.48 56.6704 791.4 50.1504L778.97 53.3903Z" fill="#231F20"/>
<path d="M700.5 66.9602H752.83V57.2202H714.15V44.2002H750.06V34.5702H714.15V22.3002H751.29V12.4902H700.5V66.9602Z" fill="#231F20"/>
<path d="M653.16 26.2403C650.48 25.4003 647.7 25.3703 645.3 25.3203H628.5V34.1103H630.58V27.3903H645.28C648.06 27.4203 651.04 27.5103 653.62 28.6003C653.62 27.9403 653.53 27.0303 653.16 26.2403Z" fill="#231F20"/>
<path d="M754.61 15.7402L754.6 25.5302H717.54V33.1802H719.62V27.6002H756.68V15.7402H754.61Z" fill="#231F20"/>
<path d="M753.37 37.7998V47.4498H717.54V55.8598H719.62V49.5098H755.45V37.7998H753.37Z" fill="#231F20"/>
<path d="M816.97 49.3402C814.73 48.8702 803.54 47.1802 800.99 46.7002C798.48 46.2402 793.66 45.3102 789.4 42.9902C793.42 47.3702 799.97 48.8002 803.25 49.4902C803.98 49.6502 805.45 49.9302 807.2 50.2602C810.73 50.8202 814.31 51.4002 815.47 51.6302C817.51 52.0002 819.68 52.3702 820.98 53.9602C821.59 53.2302 821.95 52.3102 821.99 51.1802C820.62 49.9502 818.77 49.6602 816.97 49.3302" fill="#231F20"/>
<path d="M36.1301 35.19L35.0001 32.69C34.9701 32.75 34.9501 32.8 34.9301 32.84L29.0601 45.74H31.3401L36.1401 35.18L36.1301 35.19ZM22.5501 59.99L17.9201 70.26H6.75011L5.86011 72.15V72.33H19.2601L23.8901 62.07H48.3701L47.4401 60H22.5601L22.5501 59.99ZM47.0501 16.37L73.0701 70.26H57.7401L58.7101 72.32H76.3701L49.3401 16.37H47.0401H47.0501ZM215.7 70.26H205.44V70.28L206.4 72.32H217.04L242.2 16.35H239.93L215.7 70.26ZM146.69 16.37L147.42 16.99C153.76 22.21 157 32.04 156.99 39.88C156.99 40.94 156.94 41.97 156.83 42.95C156.16 49.28 154.57 54.62 151.12 59.66C144.23 69.54 134.28 70.17 126.52 70.26H99.0501V72.32H126.54C134.33 72.26 145.34 71.56 152.83 60.82C156.5 55.46 158.21 49.72 158.89 43.17C158.98 42.31 159.02 41.41 159.03 40.5C158.89 30.17 154.78 21.37 146.67 16.36M112.89 27.72H127.6C130.33 27.76 132.93 27.78 135.49 28.82C135.47 28.79 135.45 28.75 135.43 28.71C134.76 27.65 134.02 26.78 133.23 26.04C131.17 25.66 129.43 25.68 127.61 25.65H110.82V55.98H112.88V27.72H112.89ZM809 25.75C809.74 25.75 810.48 25.79 811.24 25.86C813.31 26.07 814.92 26.23 817.38 27.38L820.42 26.62L819.52 26.14C816.14 24.31 813.83 24.03 811.44 23.81C810.62 23.73 809.81 23.69 809.01 23.69C804.41 23.7 799.64 25.1 798.48 29.11C798.95 29.58 799.6 29.91 800.35 30.2C800.85 27.18 804.33 25.81 809.01 25.77M844.29 27.16C843.24 25.05 841.18 21.36 836.53 18.19C836.49 18.17 836.47 18.13 836.43 18.1C838.34 20.02 840.76 23.78 841.67 25.74L828.63 29.45L830.2 31.15L844.29 27.15V27.16ZM283.04 49.59H318.87V37.88H316.79V47.52H280.97V55.92H283.04V49.59ZM283.04 27.67H320.1V15.79H318.03V25.59H280.97V33.25H283.04V27.67ZM537.37 54.69C537.43 54.72 537.48 54.73 537.52 54.76C536.72 53.04 536.59 51.25 536.56 48.87V16.37H534.49L534.47 48.87C534.46 50.44 534.49 51.74 534.83 53.21C535.58 53.72 536.4 54.23 537.36 54.69M208.81 43.28L197.81 16.36H195.57L207.68 46.02L208.8 43.29L208.81 43.28ZM579.54 48.48C579.46 54.11 578.33 59.14 573.92 64.04C568.63 69.93 559.45 71.86 551.16 72.67C550.19 72.76 548.76 72.82 547.13 72.82C542.99 72.82 537.4 72.46 534.19 71.73C536.9 72.48 539.94 73.1 542.54 73.54C544.12 73.79 545.52 73.96 546.56 74.03C550.83 74.3 555.48 74.27 559.9 73.43C565.75 72.14 571.44 69.85 575.46 65.43C580.28 60.12 581.56 54.38 581.63 48.49V16.28H579.56V48.48H579.54ZM671.92 40.5C673.8 37.28 674.77 33.4 674.77 29.43C674.77 29.05 674.75 28.67 674.72 28.3C674.51 25.99 673.78 23.67 672.61 21.53C671.57 19.63 670.14 17.84 668.4 16.35L668.97 17.2C671.46 20.82 672.69 25.27 672.69 29.43C672.69 33.06 671.79 36.59 670.12 39.46C668.31 42.64 663.87 45.08 661.52 46.02L660.31 46.53L677.53 70.27H660.79L662.19 72.33H681.57L663.5 47.41C666.14 46.16 669.9 43.89 671.91 40.5M319.54 70.27H269.47V72.33H321.6V60.54H319.53V70.27H319.54ZM792.58 69.6C792.58 69.6 792.63 69.61 792.65 69.62C792.54 69.56 792.43 69.52 792.32 69.47L792.58 69.6ZM791.74 69.2C791.92 69.31 792.13 69.36 792.32 69.47L791.73 69.17L791.75 69.19L791.74 69.2ZM838.69 43.1L838.97 44.04C839.46 45.64 839.66 47.97 839.66 50.13C839.66 52 839.52 53.74 839.31 54.86C836.4 71.2 819.45 71.9 812.04 72.14C810.97 72.16 809.67 72.21 808.19 72.21C803.41 72.23 796.99 71.79 792.63 69.62C798.71 72.92 805.47 73.73 810.66 73.89C813.67 73.98 819.42 74.02 824.95 72.55C828.67 71.49 832.42 69.74 835.45 66.78C838.35 63.61 840.38 59.32 840.54 53.48C840.57 52.23 840.44 50.45 840.15 48.57C839.85 46.66 839.35 44.74 838.69 43.1ZM628.47 48.38V70.27H616.86V72.33H630.54V50.45H642.34L640.97 48.38H628.47ZM364.5 34.52C364.52 36.94 364.5 38.16 364.55 41.32V70.27H353.9V72.33H366.62V41.3C366.59 39.37 366.59 38.17 366.58 36.96L364.49 34.52H364.5ZM369.16 16.36L393.99 44.52V41.38L371.91 16.36H369.16ZM439.46 27.83H454.59V25.76H439.46V27.83ZM411.98 70.27H400.6L402.48 72.34H414.05V16.37H411.98V70.28V70.27ZM493.56 25.76H473.32V70.27H459.68V72.33H475.4V27.83H495.63V15.8H493.56V25.76Z" fill="#231F20"/>
<path d="M599.96 150.39C598.81 158.38 593.8 163.79 591.79 168.96C590.15 173.16 591.79 174.93 591.79 174.93C598.76 164.5 605.89 154.52 612.79 153.56C614.7 152.92 616.52 153.67 617.85 155.07C621.3 158.94 622.32 164.25 620.96 169.32C618.8 178.11 610.58 184.85 602.31 187.63C600.07 188.25 597.49 188.16 594.96 188.26C590.73 197.68 588.74 206.37 586.21 216.52C583.7 220.9 580.43 215.74 578.94 213.48C577.9 208.59 579.23 205.3 579.86 201.4C581.47 194.11 584.23 187.25 586.85 180.32C582.17 172.15 587.54 163.47 591.53 156.79C594 154.13 596.94 148.04 599.45 149.36L599.96 150.4V150.39ZM614.42 160.42C611.64 162.72 609.86 165.04 607.57 167.52C605.22 171.02 601.72 174.48 600.89 178.57C604.62 178.68 607.76 177.07 610.72 174.96C614.57 172.2 616.4 167.98 616.39 163.38C616.09 162.2 615.97 160.29 614.41 160.43M540.34 142.85C539.47 143.32 539.61 144.52 539.76 145.54C540.88 152.9 543.53 159.99 543.79 167.83C543.58 169.18 544.38 170.92 542.99 171.72C539.36 167.01 536.5 161.63 533.42 156.58C531.1 154.46 529.9 149.31 525.94 151.05C523.47 153.52 522.86 156.93 521.7 160.3C520.64 166.92 518.84 169.67 520.23 179.47C520.38 182.4 522.04 183.42 523.99 184.06C525.67 183.55 526.64 181.52 526.84 180.49C526.84 180.49 528.99 173.32 529.15 168.21C529.25 165.62 529.13 162.75 529.13 162.75L531.53 167.44C535.09 176.07 536.78 179.76 540.97 181.9C543.73 182.92 545.2 182.48 547.82 180.58C554.01 173.29 552.03 161.11 548.87 153.16C546.79 149.34 543.26 141.16 540.35 142.84M494.68 147.48C489.86 148.69 484.19 150.2 481.65 154.88C481.08 157.25 480.8 160.16 482.78 161.91C486.23 164.67 496.2 163.88 502.8 165.13C506.01 166.26 511.74 166.98 511.85 170.22C512.17 175.17 507.92 176.15 500.34 176.64C497.99 177.08 491.15 177.4 488.48 174.54C487.04 172.67 487.58 171.47 490.53 169.47C496.81 168.65 496.03 172.03 499.31 173.03C503.52 174.23 507.05 172.82 507.54 170.71C507.82 169.02 506.57 168.31 502.14 167.1C499.61 165.97 491.14 164.62 485.68 167.29C483.79 168.26 483.19 170.28 482.8 172.14C483.15 177.44 488.32 180.34 492.71 182.01C499.46 183.86 508.85 183.74 514.97 179.01C517.91 177.14 518.5 172.85 517.52 168.67C515.86 161.64 508.23 161.05 502.49 160.01C497.55 159.49 499.01 159.76 495.05 159.44C493.3 159.85 487.97 159.46 488.96 156.17C491.36 150.87 496.42 152.69 503.86 153.96C512.97 155.54 515.49 155.9 518.03 153.12C518.8 150.64 517.97 148.38 514.7 147.48C508.93 145.87 502.42 146.21 494.7 147.48M577.29 149.73C570.71 149.52 568.41 149.65 562.46 150.53C558.92 151.04 556.81 150.17 555.39 152.5C555.81 155.6 559.2 156.22 561.37 157.31C559.88 160.68 560.04 161.53 558.96 163.38L556.21 164.47C555.32 165.46 555.76 167.7 556.05 169.24C555.42 172.29 553.28 174.78 553.38 178.19C552.92 181.75 555.38 184.73 557.69 186.85C562.91 189.07 568.78 186.7 573.46 184.28C575.57 182.47 581.22 182 579.47 177.85C578.83 176.47 577.86 175.07 575.96 175.51C571.03 175.19 566.85 177.76 562.28 176.6C562.01 174.74 563.41 173.41 563.64 171.71C564.09 168.63 567.45 169.8 569.51 169.66C572.59 169.43 576.98 170.77 578.93 167.92C580.1 166.06 579.21 165.21 578.2 164.34C575.17 163.22 571.92 163.45 568.35 163.33C566.81 162.95 567.75 161.1 568.1 160.09C568.73 156.69 572.77 158.68 575.5 158.28C579.07 158.39 582.5 158.18 585.44 156.56C587.34 149.41 577.3 149.72 577.3 149.72M471.31 148.75C468.6 157.27 468.92 165.02 468.78 173.73C469.2 176.65 468.42 180.01 470.56 182.32C471.91 182.86 473.93 183.43 475.46 182.21C477.02 180.57 477.02 179.71 477.57 176.53C479.09 167.28 477.63 158.85 476.38 149.42C475.56 146.18 472.84 144.84 471.3 148.74M491.58 117.18C493.79 117.78 496.32 118.35 497.27 120.77C498.46 123.71 497.57 127.78 495.27 130.09C488.39 137.02 479.68 143.22 469.38 139.64C468.34 140.13 467.59 142.31 465.89 142.09C463.36 140.98 463.47 137.74 463.39 135.34C461.43 132.89 460.67 129.8 461.47 126.59C464.94 118.69 473.29 113.85 481.66 113.09C485.42 113.39 489.16 113.69 491.58 117.17M489.24 121.54C483.05 122.7 479.96 124.94 475.87 129.58C470.99 135.8 476.77 135.14 480.86 134.21C485.17 132.43 484.75 133.33 489.29 130.22C491.06 128.41 493.34 126.43 492.76 123.52C492.29 121.98 490.6 121.57 489.25 121.54M477.7 119.18C474.98 118.05 471.25 121.54 468.62 124.01C467.53 125.52 466.34 127.99 467.49 129.31C471.04 127.5 479.94 120.14 477.7 119.17M449.89 130.63C459.12 140.83 469.79 153.46 463.34 168.06C455.87 183.31 441.53 186.74 425.66 186.74C420.56 186.25 413.02 185.94 408.26 185.11C408.26 185.11 407.04 189.98 404.86 190.87C401.91 192.29 398.49 190.55 398.24 187.64L397.51 180.75C389.13 175.88 381.1 171.82 375.4 163.27C373.52 161.25 373.01 157.96 373.76 155.94C376.83 150.42 383.55 148.77 389.04 146.9L398.67 144.99L399.37 144.35C400.09 138.21 400.02 133.62 402.24 128.23C403.61 125.52 406.16 125.6 406.71 128.18C409.17 131.23 408.12 137.63 408.78 143.45L408.74 144.65C419.59 145.35 432.06 145.4 439.27 153.99C440.9 156.4 441.55 157.44 440.36 160.8C439.2 163.9 435.75 165 433.28 165.65C430.57 166.29 428.5 165.4 428.73 163.53C428.58 160.39 436.54 162.59 431.3 157.94C426.69 155.66 426.76 156.48 423.71 155.19C418.8 154.35 414.5 152.16 408.91 152.53C408.38 162.1 407.78 169.16 408.18 177.02C412.95 178.45 417.32 178.96 421.22 178.93C432.31 178.87 445.46 178.4 453.15 166.89C458.27 156.67 452.3 146.06 445.56 138.35C429.21 122.64 410.64 113.51 388.57 109.46C380.12 107.91 369.06 106.7 364.29 109.32C361.41 112.85 368.92 110.96 367.82 113.49C367.29 115.37 361.99 114.58 359.16 112.52C356.18 109.91 359.06 106.59 364.85 104.69C388.12 97.31 421.79 109.26 443.95 125.35L449.89 130.64V130.63ZM398.96 151.83C393.5 151.82 389.19 151.53 383.25 154.03C379.25 155.71 377.76 158.49 382 163C384.82 166 388.64 168.56 391.49 170.62C393.79 172.25 394.62 172.6 397.98 173.91C398.41 167.1 398.95 151.84 398.95 151.84" fill="#231F20"/>
<path d="M303.93 161.8H314.8C316.44 161.8 319.52 161.83 319.52 157.85C319.52 154.36 316.77 154.36 315.71 154.36H303.93V161.79V161.8ZM303.93 149.32H314.31C315.18 149.32 315.99 149.29 316.65 149.04C318.37 148.34 318.37 146.42 318.37 146.08C318.37 143.01 316.04 142.96 314.88 142.96H303.93V149.32ZM296.75 137.92H315.53C318.53 138 322.18 138.09 324.16 140.91C325.17 142.39 325.3 143.99 325.3 145.01C325.3 145.78 325.22 147.43 324.16 148.86C322.97 150.42 321.41 150.92 320.5 151.18C322.31 151.67 326.77 152.77 326.77 158.55C326.77 160.23 326.41 161.99 325.47 163.43C323.21 166.84 319.47 166.84 316.65 166.88H296.75V137.92Z" fill="#231F20"/>
<path d="M328.37 137.92H337.31L345 148.82C345.56 149.57 345.6 149.73 345.81 150.3C346.05 149.73 346.13 149.57 346.51 149.03L354.43 137.92H363.25L349.42 156.01V166.88H342.17V156.01L328.38 137.92H328.37Z" fill="#231F20"/>
<path d="M633.03 153.81C631.48 155.36 629.61 156.13 627.42 156.13C625.23 156.13 623.37 155.36 621.84 153.81C620.31 152.27 619.55 150.39 619.55 148.2C619.55 146.01 620.32 144.16 621.87 142.61C623.41 141.08 625.26 140.31 627.43 140.31C629.6 140.31 631.49 141.08 633.04 142.61C634.57 144.16 635.36 146.01 635.36 148.2C635.36 150.39 634.58 152.26 633.04 153.81M622.63 143.39C621.31 144.71 620.65 146.32 620.65 148.2C620.65 150.08 621.31 151.71 622.62 153.05C623.94 154.38 625.54 155.05 627.43 155.05C629.32 155.05 630.93 154.38 632.25 153.05C633.57 151.71 634.23 150.1 634.23 148.2C634.23 146.3 633.58 144.71 632.25 143.39C630.92 142.05 629.32 141.38 627.43 141.38C625.54 141.38 623.96 142.05 622.63 143.39ZM627.29 143.83C628.36 143.83 629.16 143.93 629.67 144.14C630.56 144.52 631.01 145.24 631.01 146.34C631.01 147.12 630.73 147.69 630.16 148.06C629.86 148.25 629.45 148.39 628.9 148.48C629.59 148.58 630.07 148.86 630.4 149.33C630.71 149.79 630.87 150.23 630.87 150.67V151.31C630.87 151.51 630.87 151.73 630.9 151.96C630.9 152.19 630.94 152.34 630.97 152.41L631.02 152.51H629.59C629.59 152.51 629.58 152.46 629.57 152.43C629.57 152.4 629.55 152.37 629.55 152.33L629.52 152.05V151.36C629.52 150.36 629.25 149.7 628.7 149.37C628.37 149.19 627.81 149.09 627 149.09H625.79V152.51H624.26V143.83H627.3H627.29ZM628.94 145.19C628.55 144.98 627.94 144.88 627.08 144.88H625.77V148.02H627.16C627.8 148.02 628.29 147.96 628.61 147.82C629.21 147.58 629.51 147.13 629.51 146.46C629.51 145.83 629.31 145.41 628.93 145.18" fill="#231F20"/>
</svg>
